<svg xmlns="http://www.w3.org/2000/svg" viewBox="0 0 600 150" style="shape-rendering:geometricPrecision; text-rendering:geometricPrecision;">
  <!-- Rayons du soleil simplifiés -->
  <g fill="#FFD700">
    <rect x="30" y="20" width="4" height="25" rx="2" transform="rotate(-45 32 32.5)"/>
    <rect x="50" y="10" width="4" height="35" rx="2"/>
    <rect x="70" y="20" width="4" height="25" rx="2" transform="rotate(45 72 32.5)"/>
    <rect x="85" y="35" width="4" height="20" rx="2" transform="rotate(70 87 45)"/>
    
    <rect x="15" y="50" width="4" height="20" rx="2" transform="rotate(-70 17 60)"/>
    <rect x="35" y="70" width="3" height="15" rx="1.5" transform="rotate(-30 36.5 77.5)"/>
    
    <rect x="30" y="105" width="4" height="25" rx="2" transform="rotate(45 32 117.5)"/>
    <rect x="50" y="105" width="4" height="35" rx="2"/>
    <rect x="70" y="105" width="4" height="25" rx="2" transform="rotate(-45 72 117.5)"/>
    <rect x="85" y="95" width="4" height="20" rx="2" transform="rotate(-70 87 105)"/>
    
    <rect x="15" y="80" width="4" height="20" rx="2" transform="rotate(70 17 90)"/>
    <rect x="90" y="70" width="3" height="15" rx="1.5" transform="rotate(-15 91.5 77.5)"/>
  </g>
  
  <!-- Texte LOCASUN simplifié et net -->
  <g style="font-family: Arial, sans-serif; font-weight: bold;">
    
    <!-- L -->
    <path fill="#00BFFF" d="M120 40 L120 110 L155 110 L155 95 L135 95 L135 40 Z"/>
    
    <!-- O -->
    <circle cx="175" cy="75" r="20" fill="none" stroke="#FFD700" stroke-width="8"/>
    <circle cx="175" cy="75" r="12" fill="#FFD700"/>
    
    <!-- C -->
    <path fill="#FFD700" d="M210 55 C230 55 245 65 245 75 C245 85 230 95 210 95 C190 95 185 85 185 75 C185 65 190 55 210 55 Z M210 65 C200 65 195 70 195 75 C195 80 200 85 210 85 C220 85 230 80 230 75 C230 70 220 65 210 65 Z"/>
    
    <!-- A -->
    <path fill="#0099CC" d="M260 40 L275 40 L295 110 L280 110 L277 95 L258 95 L255 110 L240 110 L260 40 Z M262 80 L273 80 L267.5 65 L262 80 Z"/>
    
    <!-- S -->
    <path fill="#0099CC" d="M310 55 C325 55 335 60 340 70 L330 75 C327 65 320 62 310 62 C305 62 302 65 302 68 C302 72 305 74 310 76 L325 81 C335 85 342 90 342 100 C342 110 332 115 320 115 C305 115 295 110 290 100 L300 95 C303 105 310 108 320 108 C325 108 330 105 330 100 C330 96 327 94 320 92 L305 87 C295 83 288 78 288 68 C288 58 298 55 310 55 Z"/>
    
    <!-- U -->
    <path fill="#0077AA" d="M355 40 L355 85 C355 95 362 102 372 102 C382 102 389 95 389 85 L389 40 L404 40 L404 85 C404 105 387 117 372 117 C357 117 340 105 340 85 L340 40 L355 40 Z"/>
    
    <!-- N -->
    <path fill="#FF1493" d="M420 40 L420 110 L435 110 L435 85 C435 78 442 71 450 71 C458 71 465 78 465 85 L465 110 L480 110 L480 85 C480 68 468 56 450 56 C440 56 433 62 430 70 L430 40 L420 40 Z"/>
  </g>
</svg>